; OM File Header - Saved 2020/05/02 18:38:40
; (6.16 :patc (om-make-point 24 24) (om-make-point 31 32) (om-make-point 1083 801) "" 183 0 nil "2020/05/02 17:23:32")
; End File Header
; External resources 
; (list (list (quote :abstraction) "#P\"seq_fin.omp\"" "#P\"modes.omp\""))
(in-package :om)(load-lib-for (quote nil))(setf *om-current-persistent* (om-load-patch1 "_mode_de_valeurs" (quote ((let ((box (om-load-boxcomment "comment" (om-make-point 183 152) (quote "0 - original order by Messiaen$1 - random order$2 - all mode elements sorted by position in mode$3 - mode elements arranged by serial exposition (an attempt)") nil (om-make-point 850 159) nil (om-make-color 0 0 0) (om-make-font "Verdana" 12 :family "Verdana" :style (quote (:plain)) :mode (quote nil))))) (when (fboundp (quote set-active)) (set-active box nil)) box) (let ((box (om-load-boxcall (quote lispfun) "PRINT" (quote print) (quote ((om-load-inputfun (quote input-funbox) "SOMETHING" "SOMETHING" nil))) (om-make-point 102 709) nil nil nil nil 1))) (when (fboundp (quote set-active)) (set-active box nil)) box) (let ((box (om-load-boxcall (quote bastype) "aux 4" (quote t) (quote nil) (om-make-point 821 156) (om-make-point 27 30) 0 "0" nil))) (when (fboundp (quote set-active)) (set-active box nil)) box) (let ((box (om-load-boxcall (quote abstraction) "mode_order_selection 3" (om-load-patch-abs1 "mode_order_selection" (quote ((let ((box (om-load-boxcomment "comment" (om-make-point 277 149) (quote "This mode selection sort option rearranges mode elements present in the score in different ways:$0 - original order by Messiaen$1 - random order$2 - mode elements sorted$3 - mode elements arranged by serial exposition atyempt") "" (om-make-point 552 48) nil (om-make-color 0 0 0) (om-make-font "Verdana" 12 :family "Verdana" :style (quote (:plain)) :mode (quote nil))))) (when (fboundp (quote set-active)) (set-active box nil)) box) (let ((box (om-load-boxcall (quote genfun) "OM<=" (quote om<=) (quote ((om-load-inputfun (quote input-funbox) "a number" "NUM1" 0) (om-load-inputfun (quote input-funbox) "a number" "NUM2" 0))) (om-make-point 70 364) nil nil nil nil 1))) (when (fboundp (quote set-active)) (set-active box nil)) box) (let ((box (om-load-boxcall (quote genfun) "OM>=" (quote om>=) (quote ((om-load-inputfun (quote input-funbox) "a number" "NUM1" 0) (om-load-inputfun (quote input-funbox) "a number" "NUM2" 3))) (om-make-point 436 366) nil nil nil nil 1))) (when (fboundp (quote set-active)) (set-active box nil)) box) (let ((box (om-load-boxcall (quote genfun) "OMIF 4" (quote omif) (quote ((om-load-inputfun (quote input-funbox) "IF" "TEST" nil) (om-load-inputfun (quote input-funbox) "THEN" "ACTION" nil) (om-load-inputfun (quote input-funbox) "ELSE" "ELSE" nil))) (om-make-point 440 410) (om-make-point 78 57) nil nil nil 1))) (when (fboundp (quote set-active)) (set-active box nil)) box) (let ((box (om-load-boxcall (quote genfun) "OM= 3" (quote om=) (quote ((om-load-inputfun (quote input-funbox) "a number" "A" 0) (om-load-inputfun (quote input-funbox) "a number" "B" 2))) (om-make-point 297 363) (om-make-point 36 35) nil nil nil 1))) (when (fboundp (quote set-active)) (set-active box nil)) box) (let ((box (om-load-boxcall (quote genfun) "OMIF 3" (quote omif) (quote ((om-load-inputfun (quote input-funbox) "IF" "TEST" nil) (om-load-inputfun (quote input-funbox) "THEN" "ACTION" nil) (om-load-inputfun (quote input-funbox) "ELSE" "ELSE" nil))) (om-make-point 320 410) (om-make-point 78 57) nil nil nil 1))) (when (fboundp (quote set-active)) (set-active box nil)) box) (let ((box (om-load-boxcall (quote genfun) "OM= 2" (quote om=) (quote ((om-load-inputfun (quote input-funbox) "a number" "A" 0) (om-load-inputfun (quote input-funbox) "a number" "B" 1))) (om-make-point 177 363) (om-make-point 36 35) nil nil nil 1))) (when (fboundp (quote set-active)) (set-active box nil)) box) (let ((box (om-load-boxcall (quote genfun) "OMIF 2" (quote omif) (quote ((om-load-inputfun (quote input-funbox) "IF" "TEST" nil) (om-load-inputfun (quote input-funbox) "THEN" "ACTION" nil) (om-load-inputfun (quote input-funbox) "ELSE" "ELSE" nil))) (om-make-point 200 410) (om-make-point 78 57) nil nil nil 1))) (when (fboundp (quote set-active)) (set-active box nil)) box) (let ((box (om-load-boxcall (quote genfun) "OMIF" (quote omif) (quote ((om-load-inputfun (quote input-funbox) "IF" "TEST" nil) (om-load-inputfun (quote input-funbox) "THEN" "ACTION" nil) (om-load-inputfun (quote input-funbox) "ELSE" "ELSE" nil))) (om-make-point 80 410) (om-make-point 78 57) nil nil nil 1))) (when (fboundp (quote set-active)) (set-active box nil)) box) (let ((box (om-load-boxcall (quote genfun) "CONDITIONAL" (quote conditional) (quote ((om-load-inputfun (quote input-funbox) "test" "TEST" nil) (om-load-inputfun (quote input-funbox) "add-test" "ADDTEST" (quote t)) (om-load-inputfun (quote input-funbox) "add-test" "ADDTEST" (quote t)) (om-load-inputfun (quote input-funbox) "add-test" "ADDTEST" (quote t)))) (om-make-point 23 467) (om-make-point 544 57) nil nil nil 1))) (when (fboundp (quote set-active)) (set-active box nil)) box) (let ((box (om-load-boxcall (quote genfun) "PERMUT-RANDOM" (quote permut-random) (quote ((om-load-inputfun (quote input-funbox) "the list" "LIST" nil))) (om-make-point 211 244) nil nil nil nil 1))) (when (fboundp (quote set-active)) (set-active box nil)) box) (let ((box (om-load-boxcall (quote genfun) "SORT." (quote sort.) (quote ((om-load-inputfun (quote input-funbox) "the list" "LST" nil))) (om-make-point 374 254) nil nil nil nil 1))) (when (fboundp (quote set-active)) (set-active box nil)) box) (let ((box (om-load-boxcall (quote abstraction) "mypatch" (om-load-patch-abs1 "ordonne_ser" (quote ((let ((box (om-load-boxcall (quote genfun) "FLAT" (quote flat) (quote ((om-load-inputfun (quote input-funbox) "one list" "LST" nil))) (om-make-point 176 338) nil nil nil nil 1))) (when (fboundp (quote set-active)) (set-active box nil)) box) (let ((box (om-load-boxwithed1 (quote box-with-win) "OMLOOP" (quote omloop) (quote ((om-load-inputfun (quote input-funbox) "no documentation" "input0" nil))) (om-make-point 262 414) nil nil nil (list (let ((box (om-load-boxcall (quote genfun) "SORT." (quote sort.) (quote ((om-load-inputfun (quote input-funbox) "the list" "LST" nil))) (om-make-point 143 195) nil nil nil nil 1))) (when (fboundp (quote set-active)) (set-active box nil)) box) (let ((box (om-load-boxcall (quote genfun) "collect" (quote listing) (quote ((om-load-inputfun (quote input-funbox) "no documentation" "WHAT?" nil))) (om-make-point 161 274) nil nil nil nil 3))) (when (fboundp (quote set-active)) (set-active box nil)) box) (let ((box (om-load-boxcall (quote genfun) "inlist" (quote listloop) (quote ((om-load-inputfun (quote input-funbox) "list to iterate" "LIST" nil))) (om-make-point 121 113) nil nil nil nil 1))) (when (fboundp (quote set-active)) (set-active box nil)) box) (let ((box (om-load-boxin "input0" 0 (om-make-point 5 40) "no documentation" nil nil nil))) (when (fboundp (quote set-active)) (set-active box nil)) box) (let ((box (om-load-seqbox "finally" (quote finaldo) (quote ((om-load-inputfun (quote input-funbox) "patch" "PATCH" nil))) (om-make-point 317 319) nil nil nil 0))) (when (fboundp (quote set-active)) (set-active box nil)) box) (let ((box (om-load-seqbox "eachTime" (quote loopdo) (quote ((om-load-inputfun (quote input-funbox) "patch" "PATCH" nil))) (om-make-point 18 311) nil nil nil 0))) (when (fboundp (quote set-active)) (set-active box nil)) box)) (quote ((2 0 0 0 nil 0) (0 0 1 0 nil 0) (3 0 2 0 nil 0) (1 1 4 0 nil 0) (1 0 5 0 nil 0))) 1 "omloop" nil))) (when (fboundp (quote set-active)) (set-active box nil)) box) (let ((box (om-load-boxcall (quote genfun) "GROUP-LIST" (quote group-list) (quote ((om-load-inputfun (quote input-funbox) " a List" "LIST" (list 1 2 3 4)) (om-load-inputfun (quote input-funbox) "a List" "SEGMENTATION" (list 1 3)) (om-load-inputfunmenu1 (quote input-funmenu) "Menu" "MODE" (quote linear) (list (list "linear" (quote (quote linear))) (list "circular" (quote (quote circular))))))) (om-make-point 252 339) nil nil nil nil 1))) (when (fboundp (quote set-active)) (set-active box nil)) box) (let ((box (om-load-boxcall (quote genfun) "REPEAT-N" (quote repeat-n) (quote ((om-load-inputfun (quote input-funbox) "patch" "SELF" 12) (om-load-inputfun (quote input-funbox) "times" "NUM" 8))) (om-make-point 277 176) nil nil nil nil 1))) (when (fboundp (quote set-active)) (set-active box nil)) box) (let ((box (om-load-boxcall (quote lispfun) "LENGTH" (quote length) (quote ((om-load-inputfun (quote input-funbox) "SEQUENCE" "SEQUENCE" nil))) (om-make-point 356 133) nil nil nil nil 1))) (when (fboundp (quote set-active)) (set-active box nil)) box) (let ((box (om-load-boxcall (quote genfun) "OM//" (quote om//) (quote ((om-load-inputfun (quote input-funbox) "number or tree" "SELF" 1) (om-load-inputfun (quote input-funbox) "number or tree" "DIVISOR" 12))) (om-make-point 384 260) (om-make-point 49 53) nil nil nil 2))) (when (fboundp (quote set-active)) (set-active box nil)) box) (let ((box (om-load-boxcall (quote genfun) "X-APPEND" (quote x-append) (quote ((om-load-inputfun (quote input-funbox) "first list" "L1?" nil) (om-load-inputfun (quote input-funbox) "second list" "L2?" nil))) (om-make-point 359 352) nil nil nil nil 1))) (when (fboundp (quote set-active)) (set-active box nil)) box) (let ((box (om-load-boxout "output" 0 (om-make-point 168 423) (quote ((om-load-inputfun (quote input-funbox) "" "out" nil))) nil nil))) (when (fboundp (quote set-active)) (set-active box nil)) box) (let ((box (om-load-boxin "input1" 1 (om-make-point 476 35) "no documentation" nil 12 nil))) (when (fboundp (quote set-active)) (set-active box nil)) box) (let ((box (om-load-boxin "input" 0 (om-make-point 117 53) "no documentation" nil nil nil))) (when (fboundp (quote set-active)) (set-active box nil)) box))) (quote ((1 0 0 0 nil 0) (2 0 1 0 nil 0) (9 0 2 0 nil 1) (6 0 2 1 nil 0) (8 0 3 0 nil 3) (5 0 3 1 nil 2) (9 0 4 0 nil 1) (4 0 5 0 nil 0) (8 0 5 1 nil 3) (3 0 6 0 nil 0) (5 1 6 1 nil 0) (0 0 7 0 nil 0))) 6.16 nil "" (om-make-point 200 200) (om-make-point 500 400)) (quote ((om-load-inputfun (quote input-funbox) "no documentation" "input" nil) (om-load-inputfun (quote input-funbox) "no documentation" "input1" nil))) (om-make-point 513 258) nil nil nil "ordonne_ser"))) (when (fboundp (quote set-active)) (set-active box nil)) box) (let ((box (om-load-boxin "sort option" 1 (om-make-point 444 38) "sorting mode. 0 original pitch order; 1- random order; 2 - element order; 3 - serial order attempt" "sort option" 0 nil))) (when (fboundp (quote set-active)) (set-active box nil)) box) (let ((box (om-load-boxin "list of mode data for score" 0 (om-make-point 135 25) "" "list of mode data for score" nil nil))) (when (fboundp (quote set-active)) (set-active box nil)) box) (let ((box (om-load-boxout "output" 0 (om-make-point 274 533) (quote ((om-load-inputfun (quote input-funbox) "" "out" nil))) nil nil))) (when (fboundp (quote set-active)) (set-active box nil)) box))) (quote ((13 0 1 0 nil 3) (13 0 2 0 nil 3) (2 0 3 0 nil 0) (12 0 3 1 nil 0) (13 0 4 0 nil 3) (4 0 5 0 nil 0) (11 0 5 1 nil 0) (13 0 6 0 nil 3) (6 0 7 0 nil 0) (10 0 7 1 nil 0) (1 0 8 0 nil 0) (14 0 8 1 nil 0) (8 0 9 0 nil 0) (7 0 9 1 nil 0) (5 0 9 2 nil 0) (3 0 9 3 nil 0) (14 0 10 0 nil 0) (14 0 11 0 nil 0) (14 0 12 0 nil 0) (9 0 15 0 nil 0))) 6.16 nil "" (om-make-point 200 200) (om-make-point 500 400)) (quote ((om-load-inputfun (quote input-funbox) "" "input" nil) (om-load-inputfun (quote input-funbox) "" "input 2" nil))) (om-make-point 602 269) nil (list (list 8 5 2 3 4 0 1 6 7 10 0 3 4 5 0 4 0 1 9 2 3 4 0 1 0 11 5 6 8 0 2 3 1 9 6 0 1 10 4 3 2 1 0 2 0 5 1 2 0 2 1 0 3 4 5 8 0 6 1 7 2 8 3 9 4 10 5 11 10 9 8 6 5 7 4 0 4 3 2 1 0 1 2 0 9 7 6 2 0 4 2 0 1 0 2 1 0 11)) nil "mode_order_selection"))) (when (fboundp (quote set-active)) (set-active box nil)) box) (let ((box (om-load-boxcall (quote abstraction) "mode_order_selection 2" (om-load-patch-abs1 "mode_order_selection" (quote ((let ((box (om-load-boxcomment "comment" (om-make-point 277 149) (quote "This mode selection sort option rearranges mode elements present in the score in different ways:$0 - original order by Messiaen$1 - random order$2 - mode elements sorted$3 - mode elements arranged by serial exposition atyempt") "" (om-make-point 552 48) nil (om-make-color 0 0 0) (om-make-font "Verdana" 12 :family "Verdana" :style (quote (:plain)) :mode (quote nil))))) (when (fboundp (quote set-active)) (set-active box nil)) box) (let ((box (om-load-boxcall (quote genfun) "OM<=" (quote om<=) (quote ((om-load-inputfun (quote input-funbox) "a number" "NUM1" 0) (om-load-inputfun (quote input-funbox) "a number" "NUM2" 0))) (om-make-point 70 364) nil nil nil nil 1))) (when (fboundp (quote set-active)) (set-active box nil)) box) (let ((box (om-load-boxcall (quote genfun) "OM>=" (quote om>=) (quote ((om-load-inputfun (quote input-funbox) "a number" "NUM1" 0) (om-load-inputfun (quote input-funbox) "a number" "NUM2" 3))) (om-make-point 436 366) nil nil nil nil 1))) (when (fboundp (quote set-active)) (set-active box nil)) box) (let ((box (om-load-boxcall (quote genfun) "OMIF 4" (quote omif) (quote ((om-load-inputfun (quote input-funbox) "IF" "TEST" nil) (om-load-inputfun (quote input-funbox) "THEN" "ACTION" nil) (om-load-inputfun (quote input-funbox) "ELSE" "ELSE" nil))) (om-make-point 440 410) (om-make-point 78 57) nil nil nil 1))) (when (fboundp (quote set-active)) (set-active box nil)) box) (let ((box (om-load-boxcall (quote genfun) "OM= 3" (quote om=) (quote ((om-load-inputfun (quote input-funbox) "a number" "A" 0) (om-load-inputfun (quote input-funbox) "a number" "B" 2))) (om-make-point 297 363) (om-make-point 36 35) nil nil nil 1))) (when (fboundp (quote set-active)) (set-active box nil)) box) (let ((box (om-load-boxcall (quote genfun) "OMIF 3" (quote omif) (quote ((om-load-inputfun (quote input-funbox) "IF" "TEST" nil) (om-load-inputfun (quote input-funbox) "THEN" "ACTION" nil) (om-load-inputfun (quote input-funbox) "ELSE" "ELSE" nil))) (om-make-point 320 410) (om-make-point 78 57) nil nil nil 1))) (when (fboundp (quote set-active)) (set-active box nil)) box) (let ((box (om-load-boxcall (quote genfun) "OM= 2" (quote om=) (quote ((om-load-inputfun (quote input-funbox) "a number" "A" 0) (om-load-inputfun (quote input-funbox) "a number" "B" 1))) (om-make-point 177 363) (om-make-point 36 35) nil nil nil 1))) (when (fboundp (quote set-active)) (set-active box nil)) box) (let ((box (om-load-boxcall (quote genfun) "OMIF 2" (quote omif) (quote ((om-load-inputfun (quote input-funbox) "IF" "TEST" nil) (om-load-inputfun (quote input-funbox) "THEN" "ACTION" nil) (om-load-inputfun (quote input-funbox) "ELSE" "ELSE" nil))) (om-make-point 200 410) (om-make-point 78 57) nil nil nil 1))) (when (fboundp (quote set-active)) (set-active box nil)) box) (let ((box (om-load-boxcall (quote genfun) "OMIF" (quote omif) (quote ((om-load-inputfun (quote input-funbox) "IF" "TEST" nil) (om-load-inputfun (quote input-funbox) "THEN" "ACTION" nil) (om-load-inputfun (quote input-funbox) "ELSE" "ELSE" nil))) (om-make-point 80 410) (om-make-point 78 57) nil nil nil 1))) (when (fboundp (quote set-active)) (set-active box nil)) box) (let ((box (om-load-boxcall (quote genfun) "CONDITIONAL" (quote conditional) (quote ((om-load-inputfun (quote input-funbox) "test" "TEST" nil) (om-load-inputfun (quote input-funbox) "add-test" "ADDTEST" (quote t)) (om-load-inputfun (quote input-funbox) "add-test" "ADDTEST" (quote t)) (om-load-inputfun (quote input-funbox) "add-test" "ADDTEST" (quote t)))) (om-make-point 23 467) (om-make-point 544 57) nil nil nil 1))) (when (fboundp (quote set-active)) (set-active box nil)) box) (let ((box (om-load-boxcall (quote genfun) "PERMUT-RANDOM" (quote permut-random) (quote ((om-load-inputfun (quote input-funbox) "the list" "LIST" nil))) (om-make-point 211 244) nil nil nil nil 1))) (when (fboundp (quote set-active)) (set-active box nil)) box) (let ((box (om-load-boxcall (quote genfun) "SORT." (quote sort.) (quote ((om-load-inputfun (quote input-funbox) "the list" "LST" nil))) (om-make-point 374 254) nil nil nil nil 1))) (when (fboundp (quote set-active)) (set-active box nil)) box) (let ((box (om-load-boxcall (quote abstraction) "mypatch" (om-load-patch-abs1 "ordonne_ser" (quote ((let ((box (om-load-boxcall (quote genfun) "FLAT" (quote flat) (quote ((om-load-inputfun (quote input-funbox) "one list" "LST" nil))) (om-make-point 176 338) nil nil nil nil 1))) (when (fboundp (quote set-active)) (set-active box nil)) box) (let ((box (om-load-boxwithed1 (quote box-with-win) "OMLOOP" (quote omloop) (quote ((om-load-inputfun (quote input-funbox) "no documentation" "input0" nil))) (om-make-point 262 414) nil nil nil (list (let ((box (om-load-boxcall (quote genfun) "SORT." (quote sort.) (quote ((om-load-inputfun (quote input-funbox) "the list" "LST" nil))) (om-make-point 143 195) nil nil nil nil 1))) (when (fboundp (quote set-active)) (set-active box nil)) box) (let ((box (om-load-boxcall (quote genfun) "collect" (quote listing) (quote ((om-load-inputfun (quote input-funbox) "no documentation" "WHAT?" nil))) (om-make-point 161 274) nil nil nil nil 3))) (when (fboundp (quote set-active)) (set-active box nil)) box) (let ((box (om-load-boxcall (quote genfun) "inlist" (quote listloop) (quote ((om-load-inputfun (quote input-funbox) "list to iterate" "LIST" nil))) (om-make-point 121 113) nil nil nil nil 1))) (when (fboundp (quote set-active)) (set-active box nil)) box) (let ((box (om-load-boxin "input0" 0 (om-make-point 5 40) "no documentation" nil nil nil))) (when (fboundp (quote set-active)) (set-active box nil)) box) (let ((box (om-load-seqbox "finally" (quote finaldo) (quote ((om-load-inputfun (quote input-funbox) "patch" "PATCH" nil))) (om-make-point 317 319) nil nil nil 0))) (when (fboundp (quote set-active)) (set-active box nil)) box) (let ((box (om-load-seqbox "eachTime" (quote loopdo) (quote ((om-load-inputfun (quote input-funbox) "patch" "PATCH" nil))) (om-make-point 18 311) nil nil nil 0))) (when (fboundp (quote set-active)) (set-active box nil)) box)) (quote ((2 0 0 0 nil 0) (0 0 1 0 nil 0) (3 0 2 0 nil 0) (1 1 4 0 nil 0) (1 0 5 0 nil 0))) 1 "omloop" nil))) (when (fboundp (quote set-active)) (set-active box nil)) box) (let ((box (om-load-boxcall (quote genfun) "GROUP-LIST" (quote group-list) (quote ((om-load-inputfun (quote input-funbox) " a List" "LIST" (list 1 2 3 4)) (om-load-inputfun (quote input-funbox) "a List" "SEGMENTATION" (list 1 3)) (om-load-inputfunmenu1 (quote input-funmenu) "Menu" "MODE" (quote linear) (list (list "linear" (quote (quote linear))) (list "circular" (quote (quote circular))))))) (om-make-point 252 339) nil nil nil nil 1))) (when (fboundp (quote set-active)) (set-active box nil)) box) (let ((box (om-load-boxcall (quote genfun) "REPEAT-N" (quote repeat-n) (quote ((om-load-inputfun (quote input-funbox) "patch" "SELF" 12) (om-load-inputfun (quote input-funbox) "times" "NUM" 8))) (om-make-point 277 176) nil nil nil nil 1))) (when (fboundp (quote set-active)) (set-active box nil)) box) (let ((box (om-load-boxcall (quote lispfun) "LENGTH" (quote length) (quote ((om-load-inputfun (quote input-funbox) "SEQUENCE" "SEQUENCE" nil))) (om-make-point 356 133) nil nil nil nil 1))) (when (fboundp (quote set-active)) (set-active box nil)) box) (let ((box (om-load-boxcall (quote genfun) "OM//" (quote om//) (quote ((om-load-inputfun (quote input-funbox) "number or tree" "SELF" 1) (om-load-inputfun (quote input-funbox) "number or tree" "DIVISOR" 12))) (om-make-point 384 260) (om-make-point 49 53) nil nil nil 2))) (when (fboundp (quote set-active)) (set-active box nil)) box) (let ((box (om-load-boxcall (quote genfun) "X-APPEND" (quote x-append) (quote ((om-load-inputfun (quote input-funbox) "first list" "L1?" nil) (om-load-inputfun (quote input-funbox) "second list" "L2?" nil))) (om-make-point 359 352) nil nil nil nil 1))) (when (fboundp (quote set-active)) (set-active box nil)) box) (let ((box (om-load-boxout "output" 0 (om-make-point 168 423) (quote ((om-load-inputfun (quote input-funbox) "" "out" nil))) nil nil))) (when (fboundp (quote set-active)) (set-active box nil)) box) (let ((box (om-load-boxin "input1" 1 (om-make-point 476 35) "no documentation" nil 12 nil))) (when (fboundp (quote set-active)) (set-active box nil)) box) (let ((box (om-load-boxin "input" 0 (om-make-point 117 53) "no documentation" nil nil nil))) (when (fboundp (quote set-active)) (set-active box nil)) box))) (quote ((1 0 0 0 nil 0) (2 0 1 0 nil 0) (9 0 2 0 nil 1) (6 0 2 1 nil 0) (8 0 3 0 nil 3) (5 0 3 1 nil 2) (9 0 4 0 nil 1) (4 0 5 0 nil 0) (8 0 5 1 nil 3) (3 0 6 0 nil 0) (5 1 6 1 nil 0) (0 0 7 0 nil 0))) 6.16 nil "" (om-make-point 200 200) (om-make-point 500 400)) (quote ((om-load-inputfun (quote input-funbox) "no documentation" "input" nil) (om-load-inputfun (quote input-funbox) "no documentation" "input1" nil))) (om-make-point 513 258) nil nil nil "ordonne_ser"))) (when (fboundp (quote set-active)) (set-active box nil)) box) (let ((box (om-load-boxin "sort option" 1 (om-make-point 444 38) "sorting mode. 0 original pitch order; 1- random order; 2 - element order; 3 - serial order attempt" "sort option" 0 nil))) (when (fboundp (quote set-active)) (set-active box nil)) box) (let ((box (om-load-boxin "list of mode data for score" 0 (om-make-point 135 25) "" "list of mode data for score" nil nil))) (when (fboundp (quote set-active)) (set-active box nil)) box) (let ((box (om-load-boxout "output" 0 (om-make-point 274 533) (quote ((om-load-inputfun (quote input-funbox) "" "out" nil))) nil nil))) (when (fboundp (quote set-active)) (set-active box nil)) box))) (quote ((13 0 1 0 nil 3) (13 0 2 0 nil 3) (2 0 3 0 nil 0) (12 0 3 1 nil 0) (13 0 4 0 nil 3) (4 0 5 0 nil 0) (11 0 5 1 nil 0) (13 0 6 0 nil 3) (6 0 7 0 nil 0) (10 0 7 1 nil 0) (1 0 8 0 nil 0) (14 0 8 1 nil 0) (8 0 9 0 nil 0) (7 0 9 1 nil 0) (5 0 9 2 nil 0) (3 0 9 3 nil 0) (14 0 10 0 nil 0) (14 0 11 0 nil 0) (14 0 12 0 nil 0) (9 0 15 0 nil 0))) 6.16 nil "" (om-make-point 200 200) (om-make-point 500 400)) (quote ((om-load-inputfun (quote input-funbox) "" "input" nil) (om-load-inputfun (quote input-funbox) "" "input 2" nil))) (om-make-point 418 263) nil (list (list 0 1 2 3 4 0 1 2 5 6 7 8 0 9 10 0 1 2 9 11 0 3 4 0 5 6 7 8 3 7 11 10 8 6 5 4 3 2 1 0 3 0 1 2 11 10 9 4 3 5 8 7 6 0 10 2 8 4 6 7 3 9 1 11 5 3 0 1 2 0 3 0 4 0 8 0 1 2 3 4 0 1 2 5 6 4 5 4 6 3 7 2 8 1 9 0 10 0 1 2 4 7 6 3 8 9 0 1 2 11 3 1 0 5 0 3 0 7 2 1 0 4 0 2 1 5 7 4 3 0 1 3 9 10 8 3 4 9 2 5 10 1 6 11 0 7 6 5 0 1 2 3 4 8 0 2 1 9 8 11 2 0 1 4 0 1 2 0 1 3 0 2 0 1 0 5 7 3 0 3)) nil "mode_order_selection"))) (when (fboundp (quote set-active)) (set-active box nil)) box) (let ((box (om-load-boxcall (quote abstraction) "mode_order_selection" (om-load-patch-abs1 "mode_order_selection" (quote ((let ((box (om-load-boxcomment "comment" (om-make-point 277 149) (quote "This mode selection sort option rearranges mode elements present in the score in different ways:$0 - original order by Messiaen$1 - random order$2 - mode elements sorted$3 - mode elements arranged by serial exposition atyempt") "" (om-make-point 552 48) nil (om-make-color 0 0 0) (om-make-font "Verdana" 12 :family "Verdana" :style (quote (:plain)) :mode (quote nil))))) (when (fboundp (quote set-active)) (set-active box nil)) box) (let ((box (om-load-boxcall (quote genfun) "OM<=" (quote om<=) (quote ((om-load-inputfun (quote input-funbox) "a number" "NUM1" 0) (om-load-inputfun (quote input-funbox) "a number" "NUM2" 0))) (om-make-point 70 364) nil nil nil nil 1))) (when (fboundp (quote set-active)) (set-active box nil)) box) (let ((box (om-load-boxcall (quote genfun) "OM>=" (quote om>=) (quote ((om-load-inputfun (quote input-funbox) "a number" "NUM1" 0) (om-load-inputfun (quote input-funbox) "a number" "NUM2" 3))) (om-make-point 436 366) nil nil nil nil 1))) (when (fboundp (quote set-active)) (set-active box nil)) box) (let ((box (om-load-boxcall (quote genfun) "OMIF 4" (quote omif) (quote ((om-load-inputfun (quote input-funbox) "IF" "TEST" nil) (om-load-inputfun (quote input-funbox) "THEN" "ACTION" nil) (om-load-inputfun (quote input-funbox) "ELSE" "ELSE" nil))) (om-make-point 440 410) (om-make-point 78 57) nil nil nil 1))) (when (fboundp (quote set-active)) (set-active box nil)) box) (let ((box (om-load-boxcall (quote genfun) "OM= 3" (quote om=) (quote ((om-load-inputfun (quote input-funbox) "a number" "A" 0) (om-load-inputfun (quote input-funbox) "a number" "B" 2))) (om-make-point 297 363) (om-make-point 36 35) nil nil nil 1))) (when (fboundp (quote set-active)) (set-active box nil)) box) (let ((box (om-load-boxcall (quote genfun) "OMIF 3" (quote omif) (quote ((om-load-inputfun (quote input-funbox) "IF" "TEST" nil) (om-load-inputfun (quote input-funbox) "THEN" "ACTION" nil) (om-load-inputfun (quote input-funbox) "ELSE" "ELSE" nil))) (om-make-point 320 410) (om-make-point 78 57) nil nil nil 1))) (when (fboundp (quote set-active)) (set-active box nil)) box) (let ((box (om-load-boxcall (quote genfun) "OM= 2" (quote om=) (quote ((om-load-inputfun (quote input-funbox) "a number" "A" 0) (om-load-inputfun (quote input-funbox) "a number" "B" 1))) (om-make-point 177 363) (om-make-point 36 35) nil nil nil 1))) (when (fboundp (quote set-active)) (set-active box nil)) box) (let ((box (om-load-boxcall (quote genfun) "OMIF 2" (quote omif) (quote ((om-load-inputfun (quote input-funbox) "IF" "TEST" nil) (om-load-inputfun (quote input-funbox) "THEN" "ACTION" nil) (om-load-inputfun (quote input-funbox) "ELSE" "ELSE" nil))) (om-make-point 200 410) (om-make-point 78 57) nil nil nil 1))) (when (fboundp (quote set-active)) (set-active box nil)) box) (let ((box (om-load-boxcall (quote genfun) "OMIF" (quote omif) (quote ((om-load-inputfun (quote input-funbox) "IF" "TEST" nil) (om-load-inputfun (quote input-funbox) "THEN" "ACTION" nil) (om-load-inputfun (quote input-funbox) "ELSE" "ELSE" nil))) (om-make-point 80 410) (om-make-point 78 57) nil nil nil 1))) (when (fboundp (quote set-active)) (set-active box nil)) box) (let ((box (om-load-boxcall (quote genfun) "CONDITIONAL" (quote conditional) (quote ((om-load-inputfun (quote input-funbox) "test" "TEST" nil) (om-load-inputfun (quote input-funbox) "add-test" "ADDTEST" (quote t)) (om-load-inputfun (quote input-funbox) "add-test" "ADDTEST" (quote t)) (om-load-inputfun (quote input-funbox) "add-test" "ADDTEST" (quote t)))) (om-make-point 23 467) (om-make-point 544 57) nil nil nil 1))) (when (fboundp (quote set-active)) (set-active box nil)) box) (let ((box (om-load-boxcall (quote genfun) "PERMUT-RANDOM" (quote permut-random) (quote ((om-load-inputfun (quote input-funbox) "the list" "LIST" nil))) (om-make-point 211 244) nil nil nil nil 1))) (when (fboundp (quote set-active)) (set-active box nil)) box) (let ((box (om-load-boxcall (quote genfun) "SORT." (quote sort.) (quote ((om-load-inputfun (quote input-funbox) "the list" "LST" nil))) (om-make-point 374 254) nil nil nil nil 1))) (when (fboundp (quote set-active)) (set-active box nil)) box) (let ((box (om-load-boxcall (quote abstraction) "mypatch" (om-load-patch-abs1 "ordonne_ser" (quote ((let ((box (om-load-boxcall (quote genfun) "FLAT" (quote flat) (quote ((om-load-inputfun (quote input-funbox) "one list" "LST" nil))) (om-make-point 176 338) nil nil nil nil 1))) (when (fboundp (quote set-active)) (set-active box nil)) box) (let ((box (om-load-boxwithed1 (quote box-with-win) "OMLOOP" (quote omloop) (quote ((om-load-inputfun (quote input-funbox) "no documentation" "input0" nil))) (om-make-point 262 414) nil nil nil (list (let ((box (om-load-boxcall (quote genfun) "SORT." (quote sort.) (quote ((om-load-inputfun (quote input-funbox) "the list" "LST" nil))) (om-make-point 143 195) nil nil nil nil 1))) (when (fboundp (quote set-active)) (set-active box nil)) box) (let ((box (om-load-boxcall (quote genfun) "collect" (quote listing) (quote ((om-load-inputfun (quote input-funbox) "no documentation" "WHAT?" nil))) (om-make-point 161 274) nil nil nil nil 3))) (when (fboundp (quote set-active)) (set-active box nil)) box) (let ((box (om-load-boxcall (quote genfun) "inlist" (quote listloop) (quote ((om-load-inputfun (quote input-funbox) "list to iterate" "LIST" nil))) (om-make-point 121 113) nil nil nil nil 1))) (when (fboundp (quote set-active)) (set-active box nil)) box) (let ((box (om-load-boxin "input0" 0 (om-make-point 5 40) "no documentation" nil nil nil))) (when (fboundp (quote set-active)) (set-active box nil)) box) (let ((box (om-load-seqbox "finally" (quote finaldo) (quote ((om-load-inputfun (quote input-funbox) "patch" "PATCH" nil))) (om-make-point 317 319) nil nil nil 0))) (when (fboundp (quote set-active)) (set-active box nil)) box) (let ((box (om-load-seqbox "eachTime" (quote loopdo) (quote ((om-load-inputfun (quote input-funbox) "patch" "PATCH" nil))) (om-make-point 18 311) nil nil nil 0))) (when (fboundp (quote set-active)) (set-active box nil)) box)) (quote ((2 0 0 0 nil 0) (0 0 1 0 nil 0) (3 0 2 0 nil 0) (1 1 4 0 nil 0) (1 0 5 0 nil 0))) 1 "omloop" nil))) (when (fboundp (quote set-active)) (set-active box nil)) box) (let ((box (om-load-boxcall (quote genfun) "GROUP-LIST" (quote group-list) (quote ((om-load-inputfun (quote input-funbox) " a List" "LIST" (list 1 2 3 4)) (om-load-inputfun (quote input-funbox) "a List" "SEGMENTATION" (list 1 3)) (om-load-inputfunmenu1 (quote input-funmenu) "Menu" "MODE" (quote linear) (list (list "linear" (quote (quote linear))) (list "circular" (quote (quote circular))))))) (om-make-point 252 339) nil nil nil nil 1))) (when (fboundp (quote set-active)) (set-active box nil)) box) (let ((box (om-load-boxcall (quote genfun) "REPEAT-N" (quote repeat-n) (quote ((om-load-inputfun (quote input-funbox) "patch" "SELF" 12) (om-load-inputfun (quote input-funbox) "times" "NUM" 8))) (om-make-point 277 176) nil nil nil nil 1))) (when (fboundp (quote set-active)) (set-active box nil)) box) (let ((box (om-load-boxcall (quote lispfun) "LENGTH" (quote length) (quote ((om-load-inputfun (quote input-funbox) "SEQUENCE" "SEQUENCE" nil))) (om-make-point 356 133) nil nil nil nil 1))) (when (fboundp (quote set-active)) (set-active box nil)) box) (let ((box (om-load-boxcall (quote genfun) "OM//" (quote om//) (quote ((om-load-inputfun (quote input-funbox) "number or tree" "SELF" 1) (om-load-inputfun (quote input-funbox) "number or tree" "DIVISOR" 12))) (om-make-point 384 260) (om-make-point 49 53) nil nil nil 2))) (when (fboundp (quote set-active)) (set-active box nil)) box) (let ((box (om-load-boxcall (quote genfun) "X-APPEND" (quote x-append) (quote ((om-load-inputfun (quote input-funbox) "first list" "L1?" nil) (om-load-inputfun (quote input-funbox) "second list" "L2?" nil))) (om-make-point 359 352) nil nil nil nil 1))) (when (fboundp (quote set-active)) (set-active box nil)) box) (let ((box (om-load-boxout "output" 0 (om-make-point 168 423) (quote ((om-load-inputfun (quote input-funbox) "" "out" nil))) nil nil))) (when (fboundp (quote set-active)) (set-active box nil)) box) (let ((box (om-load-boxin "input1" 1 (om-make-point 476 35) "no documentation" nil 12 nil))) (when (fboundp (quote set-active)) (set-active box nil)) box) (let ((box (om-load-boxin "input" 0 (om-make-point 117 53) "no documentation" nil nil nil))) (when (fboundp (quote set-active)) (set-active box nil)) box))) (quote ((1 0 0 0 nil 0) (2 0 1 0 nil 0) (9 0 2 0 nil 1) (6 0 2 1 nil 0) (8 0 3 0 nil 3) (5 0 3 1 nil 2) (9 0 4 0 nil 1) (4 0 5 0 nil 0) (8 0 5 1 nil 3) (3 0 6 0 nil 0) (5 1 6 1 nil 0) (0 0 7 0 nil 0))) 6.16 nil "" (om-make-point 200 200) (om-make-point 500 400)) (quote ((om-load-inputfun (quote input-funbox) "no documentation" "input" nil) (om-load-inputfun (quote input-funbox) "no documentation" "input1" nil))) (om-make-point 513 258) nil nil nil "ordonne_ser"))) (when (fboundp (quote set-active)) (set-active box nil)) box) (let ((box (om-load-boxin "sort option" 1 (om-make-point 444 38) "sorting mode. 0 original pitch order; 1- random order; 2 - element order; 3 - serial order attempt" "sort option" 0 nil))) (when (fboundp (quote set-active)) (set-active box nil)) box) (let ((box (om-load-boxin "list of mode data for score" 0 (om-make-point 135 25) "" "list of mode data for score" nil nil))) (when (fboundp (quote set-active)) (set-active box nil)) box) (let ((box (om-load-boxout "output" 0 (om-make-point 274 533) (quote ((om-load-inputfun (quote input-funbox) "" "out" nil))) nil nil))) (when (fboundp (quote set-active)) (set-active box nil)) box))) (quote ((13 0 1 0 nil 3) (13 0 2 0 nil 3) (2 0 3 0 nil 0) (12 0 3 1 nil 0) (13 0 4 0 nil 3) (4 0 5 0 nil 0) (11 0 5 1 nil 0) (13 0 6 0 nil 3) (6 0 7 0 nil 0) (10 0 7 1 nil 0) (1 0 8 0 nil 0) (14 0 8 1 nil 0) (8 0 9 0 nil 0) (7 0 9 1 nil 0) (5 0 9 2 nil 0) (3 0 9 3 nil 0) (14 0 10 0 nil 0) (14 0 11 0 nil 0) (14 0 12 0 nil 0) (9 0 15 0 nil 0))) 6.16 nil "" (om-make-point 200 200) (om-make-point 500 400)) (quote ((om-load-inputfun (quote input-funbox) "" "input" nil) (om-load-inputfun (quote input-funbox) "" "input 2" nil))) (om-make-point 200 246) nil (list (list 0 1 2 3 5 4 6 9 10 11 10 7 8 11 8 3 2 4 6 9 11 0 1 2 7 0 1 3 6 9 11 0 1 3 4 7 8 11 10 9 8 4 3 2 1 0 6 2 4 7 9 11 10 0 2 1 7 11 0 11 1 10 2 9 3 8 4 7 5 6 1 8 0 1 11 9 0 1 3 11 10 9 4 5 6 8 7 0 1 0 10 2 8 4 6 7 3 9 1 11 6 0 11 5 4 6 7 8 10 2 5 6 9 10 11 0 1 3 4 7 6 10 11 7 5 10 5 6 11 0 4 7 10 1 3 8 9 2 11 0 2 1 3 7 8 10 9 5 10 8 9 0 4 2 0 4 10 4 2 0 1 3 8 7 2 11 8 11 3 2 1 0 5 1 3 0 2 3 4 11 7 0 1 2 4 5 10 11 3 10 11 2 0 3 1 2 3 1 0 5 1 3 2 0 6 7 0 11 6 1 10 5 2 9 4 3 8 3 0 2 1 8 9 5 6 7 2 4 5 0 3 7 0 3 6 9 1 4 7 4 0 3 10 1 4 7 10 2 5 8 11 7 11 9 10 5 4 3 2 1 0 7 8 0 1 2 3 4 5 6 7 8 9 11 10 11 0 7 9 11 10 7 0 2 8)) nil "mode_order_selection"))) (when (fboundp (quote set-active)) (set-active box nil)) box) (let ((box (om-load-boxcall (quote abstraction) "mode1_score order" (om-load-patch-abs1 "mode1_score order" (quote ((let ((box (om-load-boxcomment "comment" (om-make-point 177 42) (quote "Mode 1 score order") "" (om-make-point 215 210) nil (om-make-color 0 0 0) (om-make-font "Verdana" 12 :family "Verdana" :style (quote (:plain)) :mode (quote nil))))) (when (fboundp (quote set-active)) (set-active box nil)) box) (let ((box (om-load-boxcall (quote bastype) "aux" (quote t) (quote nil) (om-make-point 5 32) (om-make-point 368 159) (list 0 1 2 3 5 4 6 9 10 11 10 7 8 11 8 3 2 4 6 9 11 0 1 2 7 0 1 3 6 9 11 0 1 3 4 7 8 11 10 9 8 4 3 2 1 0 6 2 4 7 9 11 10 0 2 1 7 11 0 11 1 10 2 9 3 8 4 7 5 6 1 8 0 1 11 9 0 1 3 11 10 9 4 5 6 8 7 0 1 0 10 2 8 4 6 7 3 9 1 11 6 0 11 5 4 6 7 8 10 2 5 6 9 10 11 0 1 3 4 7 6 10 11 7 5 10 5 6 11 0 4 7 10 1 3 8 9 2 11 0 2 1 3 7 8 10 9 5 10 8 9 0 4 2 0 4 10 4 2 0 1 3 8 7 2 11 8 11 3 2 1 0 5 1 3 0 2 3 4 11 7 0 1 2 4 5 10 11 3 10 11 2 0 3 1 2 3 1 0 5 1 3 2 0 6 7 0 11 6 1 10 5 2 9 4 3 8 3 0 2 1 8 9 5 6 7 2 4 5 0 3 7 0 3 6 9 1 4 7 4 0 3 10 1 4 7 10 2 5 8 11 7 11 9 10 5 4 3 2 1 0 7 8 0 1 2 3 4 5 6 7 8 9 11 10 11 0 7 9 11 10 7 0 2 8) "(0 1 2 3 5 4 6 9 10 11 10 7 8 11 8 3 2 4 6 9 11 0 1 2 7 0 1 3 6 9 11 0 1 3 4 7 8 11 10 9 8 4 3 2 1 0 6 2 4 7 9 11 10 0 2 1 7 11 0 11 1 10 2 9 3 8 4 7 5 6 1 8 0 1 11 9 0 1 3 11 10 9 4 5 6 8 7 0 1 0 10 2 8 4 6 7 3 9 1 11 6 0 11 5 4 6 7 8 10 2 5 6 9 10 11 0 1 3 4 7 6 10 11 7 5 10 5 6 11 0 4 7 10 1 3 8 9 2 11 0 2 1 3 7 8 10 9 5 10 8 9 0 4 2 0 4 10 4 2 0 1 3 8 7 2 11 8 11 3 2 1 0 5 1 3 0 2 3 4 11 7 0 1 2 4 5 10 11 3 10 11 2 0 3 1 2 3 1 0 5 1 3 2 0 6 7 0 11 6 1 10 5 2 9 4 3 8 3 0 2 1 8 9 5 6 7 2 4 5 0 3 7 0 3 6 9 1 4 7 4 0 3 10 1 4 7 10 2 5 8 11 7 11 9 10 5 4 3 2 1 0 7 8 0 1 2 3 4 5 6 7 8 9 11 10 11 0 7 9 11 10 7 0 2 8)" nil))) (when (fboundp (quote set-active)) (set-active box nil)) box) (let ((box (om-load-boxout "output" 0 (om-make-point 75 223) (quote ((om-load-inputfun (quote input-funbox) "" "out" nil))) "originel" nil))) (when (fboundp (quote set-active)) (set-active box nil)) box))) (quote ((1 0 2 0 nil 0))) 6.16 nil "" (om-make-point 200 200) (om-make-point 678 621)) (quote nil) (om-make-point 226 147) (om-make-point 64 67) (list (list 0 1 2 3 5 4 6 9 10 11 10 7 8 11 8 3 2 4 6 9 11 0 1 2 7 0 1 3 6 9 11 0 1 3 4 7 8 11 10 9 8 4 3 2 1 0 6 2 4 7 9 11 10 0 2 1 7 11 0 11 1 10 2 9 3 8 4 7 5 6 1 8 0 1 11 9 0 1 3 11 10 9 4 5 6 8 7 0 1 0 10 2 8 4 6 7 3 9 1 11 6 0 11 5 4 6 7 8 10 2 5 6 9 10 11 0 1 3 4 7 6 10 11 7 5 10 5 6 11 0 4 7 10 1 3 8 9 2 11 0 2 1 3 7 8 10 9 5 10 8 9 0 4 2 0 4 10 4 2 0 1 3 8 7 2 11 8 11 3 2 1 0 5 1 3 0 2 3 4 11 7 0 1 2 4 5 10 11 3 10 11 2 0 3 1 2 3 1 0 5 1 3 2 0 6 7 0 11 6 1 10 5 2 9 4 3 8 3 0 2 1 8 9 5 6 7 2 4 5 0 3 7 0 3 6 9 1 4 7 4 0 3 10 1 4 7 10 2 5 8 11 7 11 9 10 5 4 3 2 1 0 7 8 0 1 2 3 4 5 6 7 8 9 11 10 11 0 7 9 11 10 7 0 2 8)) nil "mode1_score order"))) (when (fboundp (quote set-active)) (set-active box nil)) box) (let ((box (om-load-boxcall (quote abstraction) "mode2_score order" (om-load-patch-abs1 "mode2_score order" (quote ((let ((box (om-load-boxcomment "comment" (om-make-point 177 42) (quote "Mode 2 score order") "" (om-make-point 302 173) nil (om-make-color 0 0 0) (om-make-font "Verdana" 12 :family "Verdana" :style (quote (:plain)) :mode (quote nil))))) (when (fboundp (quote set-active)) (set-active box nil)) box) (let ((box (om-load-boxcall (quote bastype) "aux" (quote t) (quote nil) (om-make-point 62 57) (om-make-point 365 94) (list 0 1 2 3 4 0 1 2 5 6 7 8 0 9 10 0 1 2 9 11 0 3 4 0 5 6 7 8 3 7 11 10 8 6 5 4 3 2 1 0 3 0 1 2 11 10 9 4 3 5 8 7 6 0 10 2 8 4 6 7 3 9 1 11 5 3 0 1 2 0 3 0 4 0 8 0 1 2 3 4 0 1 2 5 6 4 5 4 6 3 7 2 8 1 9 0 10 0 1 2 4 7 6 3 8 9 0 1 2 11 3 1 0 5 0 3 0 7 2 1 0 4 0 2 1 5 7 4 3 0 1 3 9 10 8 3 4 9 2 5 10 1 6 11 0 7 6 5 0 1 2 3 4 8 0 2 1 9 8 11 2 0 1 4 0 1 2 0 1 3 0 2 0 1 0 5 7 3 0 3) "(0 1 2 3 4 0 1 2 5 6 7 8 0 9 10 0 1 2 9 11 0 3 4 0 5 6 7 8 3 7 11 10 8 6 5 4 3 2 1 0 3 0 1 2 11 10 9 4 3 5 8 7 6 0 10 2 8 4 6 7 3 9 1 11 5 3 0 1 2 0 3 0 4 0 8 0 1 2 3 4 0 1 2 5 6 4 5 4 6 3 7 2 8 1 9 0 10 0 1 2 4 7 6 3 8 9 0 1 2 11 3 1 0 5 0 3 0 7 2 1 0 4 0 2 1 5 7 4 3 0 1 3 9 10 8 3 4 9 2 5 10 1 6 11 0 7 6 5 0 1 2 3 4 8 0 2 1 9 8 11 2 0 1 4 0 1 2 0 1 3 0 2 0 1 0 5 7 3 0 3)" nil))) (when (fboundp (quote set-active)) (set-active box nil)) box) (let ((box (om-load-boxout "output" 0 (om-make-point 215 218) (quote ((om-load-inputfun (quote input-funbox) "" "out" nil))) nil nil))) (when (fboundp (quote set-active)) (set-active box nil)) box))) (quote ((1 0 2 0 nil 0))) 6.16 nil "" (om-make-point 200 200) (om-make-point 921 562)) (quote nil) (om-make-point 450 143) (om-make-point 53 67) (list (list 0 1 2 3 4 0 1 2 5 6 7 8 0 9 10 0 1 2 9 11 0 3 4 0 5 6 7 8 3 7 11 10 8 6 5 4 3 2 1 0 3 0 1 2 11 10 9 4 3 5 8 7 6 0 10 2 8 4 6 7 3 9 1 11 5 3 0 1 2 0 3 0 4 0 8 0 1 2 3 4 0 1 2 5 6 4 5 4 6 3 7 2 8 1 9 0 10 0 1 2 4 7 6 3 8 9 0 1 2 11 3 1 0 5 0 3 0 7 2 1 0 4 0 2 1 5 7 4 3 0 1 3 9 10 8 3 4 9 2 5 10 1 6 11 0 7 6 5 0 1 2 3 4 8 0 2 1 9 8 11 2 0 1 4 0 1 2 0 1 3 0 2 0 1 0 5 7 3 0 3)) nil "mode2_score order"))) (when (fboundp (quote set-active)) (set-active box nil)) box) (let ((box (om-load-boxcall (quote abstraction) "mode3_score order" (om-load-patch-abs1 "mode3_score order" (quote ((let ((box (om-load-boxcomment "comment" (om-make-point 177 42) (quote "Mode 3 score order") "" (om-make-point 282 153) nil (om-make-color 0 0 0) (om-make-font "Verdana" 12 :family "Verdana" :style (quote (:plain)) :mode (quote nil))))) (when (fboundp (quote set-active)) (set-active box nil)) box) (let ((box (om-load-boxcall (quote bastype) "aux" (quote t) (quote nil) (om-make-point 62 57) (om-make-point 370 81) (list 8 5 2 3 4 0 1 6 7 10 0 3 4 5 0 4 0 1 9 2 3 4 0 1 0 11 5 6 8 0 2 3 1 9 6 0 1 10 4 3 2 1 0 2 0 5 1 2 0 2 1 0 3 4 5 8 0 6 1 7 2 8 3 9 4 10 5 11 10 9 8 6 5 7 4 0 4 3 2 1 0 1 2 0 9 7 6 2 0 4 2 0 1 0 2 1 0 11) "(8 5 2 3 4 0 1 6 7 10 0 3 4 5 0 4 0 1 9 2 3 4 0 1 0 11 5 6 8 0 2 3 1 9 6 0 1 10 4 3 2 1 0 2 0 5 1 2 0 2 1 0 3 4 5 8 0 6 1 7 2 8 3 9 4 10 5 11 10 9 8 6 5 7 4 0 4 3 2 1 0 1 2 0 9 7 6 2 0 4 2 0 1 0 2 1 0 11)" nil))) (when (fboundp (quote set-active)) (set-active box nil)) box) (let ((box (om-load-boxout "output" 0 (om-make-point 222 188) (quote ((om-load-inputfun (quote input-funbox) "" "out" nil))) nil nil))) (when (fboundp (quote set-active)) (set-active box nil)) box))) (quote ((1 0 2 0 nil 0))) 6.16 nil "" (om-make-point 200 200) (om-make-point 500 400)) (quote nil) (om-make-point 625 144) (om-make-point 54 67) (list (list 8 5 2 3 4 0 1 6 7 10 0 3 4 5 0 4 0 1 9 2 3 4 0 1 0 11 5 6 8 0 2 3 1 9 6 0 1 10 4 3 2 1 0 2 0 5 1 2 0 2 1 0 3 4 5 8 0 6 1 7 2 8 3 9 4 10 5 11 10 9 8 6 5 7 4 0 4 3 2 1 0 1 2 0 9 7 6 2 0 4 2 0 1 0 2 1 0 11)) nil "mode3_score order"))) (when (fboundp (quote set-active)) (set-active box nil)) box) (let ((box (om-load-boxcomment "comment" (om-make-point 367 80) (quote "Olivier Messiaen - Mode de valeurs et d'intensités (1949)$A reconstruction - simple version$Antonio de Sousa Dias$a.sousadias@belasartes.ulisboa.pt") "" (om-make-point 60 6) nil (om-make-color 0 0 0) (om-make-font "Verdana" 12 :family "Verdana" :style (quote (:plain)) :mode (quote nil))))) (when (fboundp (quote set-active)) (set-active box nil)) box) (let ((box (om-load-boxcall (quote bastype) "aux2" (quote t) (quote nil) (om-make-point 454 45) (om-make-point 68 26) 125 "125" nil))) (when (fboundp (quote set-active)) (set-active box nil)) box) (let ((box (om-load-boxcall (quote bastype) "aux111" (quote t) (quote nil) (om-make-point 730 348) (om-make-point 28 26) 12 "12" nil))) (when (fboundp (quote set-active)) (set-active box nil)) box) (let ((box (om-load-boxcall (quote bastype) "aux11" (quote t) (quote nil) (om-make-point 531 354) (om-make-point 26 25) 4 "4" nil))) (when (fboundp (quote set-active)) (set-active box nil)) box) (let ((box (om-load-boxcall (quote patch-box) "seq_fin" (quote ("elements" "authors" "messiaen" "messiaen_1949_mode_de_valeurs_et_d_intensites" "seq_fin")) (quote ((om-load-inputfun (quote input-funbox) "no documentation" "mode1" nil) (om-load-inputfun (quote input-funbox) "no documentation" "serie1" nil) (om-load-inputfun (quote input-funbox) "no documentation" "offset1" nil) (om-load-inputfun (quote input-funbox) "no documentation" "mode2" nil) (om-load-inputfun (quote input-funbox) "no documentation" "serie2" nil) (om-load-inputfun (quote input-funbox) "no documentation" "offset2" nil) (om-load-inputfun (quote input-funbox) "no documentation" "mode3" nil) (om-load-inputfun (quote input-funbox) "no documentation" "serie3" nil) (om-load-inputfun (quote input-funbox) "no documentation" "offset3" nil) (om-load-inputfun (quote input-funbox) "no documentation" "unit" nil))) (om-make-point 58 388) (om-make-point 832 67) nil nil nil 5))) (when (fboundp (quote set-active)) (set-active box nil)) box) (let ((box (om-load-boxcall (quote bastype) "aux1" (quote t) (quote nil) (om-make-point 309 353) (om-make-point 28 26) 0 "0" nil))) (when (fboundp (quote set-active)) (set-active box nil)) box) (let ((box (om-load-editor-box1 "CHORD-SEQ" (quote chord-seq) (quote ((om-load-inputfun (quote input-funbox) "objs" "SELF" nil) (om-load-inputfun (quote input-funbox) "no documentation" "LMIDIC" (list 6000)) (om-load-inputfun (quote input-funbox) "no documentation" "LONSET" (list 0 1000)) (om-load-inputfun (quote input-funbox) "no documentation" "LDUR" (list 1000)) (om-load-inputfun (quote input-funbox) "no documentation" "LVEL" (list 100)) (om-load-inputfun (quote input-funbox) "no documentation" "LOFFSET" (list 0)) (om-load-inputfun (quote input-funbox) "no documentation" "LCHAN" (list 1)) (om-load-inputfun (quote input-funbox) "no documentation" "LEGATO" 0))) (om-make-point 63 490) (om-make-point 506 203) (let ((newobj (when (find-class (quote chord-seq) nil) (make-instance (quote chord-seq) :lmidic (quote ((9900) (9800) (9300) (9200) (9000) (9100) (8800) (8200) (7700) (7100) (7700) (8500) (8400) (7100) (8400) (9200) (9300) (9100) (8800) (8200) (7100) (9900) (9800) (9300) (8500) (9900) (9800) (9200) (8800) (8200) (7100) (9900) (9800) (9200) (9100) (8500) (8400) (7100) (7700) (8200) (8400) (9100) (9200) (9300) (9800) (9900) (8800) (9300) (9100) (8500) (8200) (7100) (7700) (9900) (9300) (9800) (8500) (7100) (9900) (7100) (9800) (7700) (9300) (8200) (9200) (8400) (9100) (8500) (9000) (8800) (9800) (8400) (9900) (9800) (7100) (8200) (9900) (9800) (9200) (7100) (7700) (8200) (9100) (9000) (8800) (8400) (8500) (9900) (9800) (9900) (7700) (9300) (8400) (9100) (8800) (8500) (9200) (8200) (9800) (7100) (8800) (9900) (7100) (9000) (9100) (8800) (8500) (8400) (7700) (9300) (9000) (8800) (8200) (7700) (7100) (9900) (9800) (9200) (9100) (8500) (8800) (7700) (7100) (8500) (9000) (7700) (9000) (8800) (7100) (9900) (9100) (8500) (7700) (9800) (9200) (8400) (8200) (9300) (7100) (9900) (9300) (9800) (9200) (8500) (8400) (7700) (8200) (9000) (7700) (8400) (8200) (9900) (9100) (9300) (9900) (9100) (7700) (9100) (9300) (9900) (9800) (9200) (8400) (8500) (9300) (7100) (8400) (7100) (9200) (9300) (9800) (9900) (9000) (9800) (9200) (9900) (9300) (9200) (9100) (7100) (8500) (9900) (9800) (9300) (9100) (9000) (7700) (7100) (9200) (7700) (7100) (9300) (9900) (9200) (9800) (9300) (9200) (9800) (9900) (9000) (9800) (9200) (9300) (9900) (8800) (8500) (9900) (7100) (8800) (9800) (7700) (9000) (9300) (8200) (9100) (9200) (8400) (9200) (9900) (9300) (9800) (8400) (8200) (9000) (8800) (8500) (9300) (9100) (9000) (9900) (9200) (8500) (9900) (9200) (8800) (8200) (9800) (9100) (8500) (9100) (9900) (9200) (7700) (9800) (9100) (8500) (7700) (9300) (9000) (8400) (7100) (8500) (7100) (8200) (7700) (9000) (9100) (9200) (9300) (9800) (9900) (8500) (8400) (9900) (9800) (9300) (9200) (9100) (9000) (8800) (8500) (8400) (8200) (7100) (7700) (7100) (9900) (8500) (8200) (7100) (7700) (8500) (9900) (9300) (8400) (7900) (7200) (7000) (6800) (6500) (7900) (7200) (7000) (6400) (6300) (6200) (6100) (7900) (5900) (5300) (7900) (7200) (7000) (5900) (4500) (7900) (6800) (6500) (7900) (6400) (6300) (6200) (6100) (6800) (6200) (4500) (5300) (6100) (6300) (6400) (6500) (6800) (7000) (7200) (7900) (6800) (7900) (7200) (7000) (4500) (5300) (5900) (6500) (6800) (6400) (6100) (6200) (6300) (7900) (5300) (7000) (6100) (6500) (6300) (6200) (6800) (5900) (7200) (4500) (6400) (6800) (7900) (7200) (7000) (7900) (6800) (7900) (6500) (7900) (6100) (7900) (7200) (7000) (6800) (6500) (7900) (7200) (7000) (6400) (6300) (6500) (6400) (6500) (6300) (6800) (6200) (7000) (6100) (7200) (5900) (7900) (5300) (7900) (7200) (7000) (6500) (6200) (6300) (6800) (6100) (5900) (7900) (7200) (7000) (4500) (6800) (7200) (7900) (6400) (7900) (6800) (7900) (6200) (7000) (7200) (7900) (6500) (7900) (7000) (7200) (6400) (6200) (6500) (6800) (7900) (7200) (6800) (5900) (5300) (6100) (6800) (6500) (5900) (7000) (6400) (5300) (7200) (6300) (4500) (7900) (6200) (6300) (6400) (7900) (7200) (7000) (6800) (6500) (6100) (7900) (7000) (7200) (5900) (6100) (4500) (7000) (7900) (7200) (6500) (7900) (7200) (7000) (7900) (7200) (6800) (7900) (7000) (7900) (7200) (7900) (6400) (6200) (6800) (7900) (6800) (4700) (6000) (6900) (6700) (6600) (7500) (7400) (5800) (5300) (3400) (7500) (6700) (6600) (6000) (7500) (6600) (7500) (7400) (4000) (6900) (6700) (6600) (7500) (7400) (7500) (2500) (6000) (5800) (4700) (7500) (6900) (6700) (7400) (4000) (5800) (7500) (7400) (3400) (6600) (6700) (6900) (7400) (7500) (6900) (7500) (6000) (7400) (6900) (7500) (6900) (7400) (7500) (6700) (6600) (6000) (4700) (7500) (5800) (7400) (5300) (6900) (4700) (6700) (4000) (6600) (3400) (6000) (2500) (3400) (4000) (4700) (5800) (6000) (5300) (6600) (7500) (6600) (6700) (6900) (7400) (7500) (7400) (6900) (7500) (4000) (5300) (5800) (6900) (7500) (6600) (6900) (7500) (7400) (7500) (6900) (7400) (7500) (2500))) :lonset (quote (0 125 375 750 1250 2000 2625 3500 4750 6125 7625 9000 10000 11125 12625 13750 14250 14625 15250 16125 17375 18875 19000 19250 19625 20625 20750 21000 21500 22375 23625 25125 25250 25500 26000 26625 27625 28750 30250 31625 32875 34000 34625 35125 35500 35750 35875 36750 37125 37750 38750 40000 41500 42875 43000 43375 43625 44625 46125 46250 47750 48000 49375 49750 51000 51500 52625 53250 54250 55000 55875 56125 57250 57375 57625 59125 60375 60500 60750 61250 62750 64125 65375 66000 66750 67625 68750 69750 69875 70125 70250 71625 72000 73125 73750 74625 75625 76125 77375 77625 79125 80000 80125 81625 82375 83000 83875 84875 86000 87375 87750 88500 89375 90625 92000 93500 93625 93875 94375 95000 96000 96875 98250 99750 100750 101500 102875 103625 104500 106000 106125 106750 107750 109125 109375 109875 111000 112250 112625 114125 114250 114625 114875 115375 116375 117500 118875 120125 120875 122250 123375 124625 124750 125375 125750 125875 126500 127875 128500 128875 129000 129250 129750 130875 131875 132250 133750 134875 136375 136875 137250 137500 137625 138375 138625 139125 139250 139625 140125 140750 142250 143250 143375 143625 144000 144625 145375 146750 148250 148750 150125 151625 152000 152125 152625 152875 153250 153750 154000 154125 154875 155125 155625 156000 156125 157000 158000 158125 159625 160500 160750 162125 162875 163250 164500 165125 165625 166750 167250 167375 167750 168000 169125 170375 171125 172000 173000 173375 174000 174750 174875 175375 176375 176500 177000 177875 179125 179375 180000 181000 181625 181750 182250 183625 183875 184500 185500 186875 187250 188000 189125 190625 191625 193125 194375 195750 196500 197125 197625 198000 198250 198375 199375 200500 200625 200875 201250 201750 202375 203125 204000 205000 206125 207375 208875 210250 211750 211875 212875 214125 215625 217000 218000 218125 218500 500 750 1250 2000 3000 4250 4500 5000 5750 7250 9000 11000 13250 13500 16000 18750 19000 19500 20250 22750 25750 26000 27000 28250 28500 30000 31750 33750 36000 37000 39000 42000 44750 47000 48750 50250 51500 52500 53250 53750 54000 55000 55250 55750 56500 59500 62250 64750 66000 67000 68500 70750 72750 74500 74750 77500 78250 80500 81750 83500 85500 86500 89000 89500 92500 94000 95000 95250 95750 96500 96750 97750 98000 99250 99500 101750 102000 102500 103250 104250 105500 105750 106250 107000 108500 110250 111500 113000 114250 116000 117000 119000 119750 122000 122500 125000 125250 128000 128250 128750 129500 130750 132750 134500 135500 137750 140250 140500 141000 141750 144750 145750 146250 146500 148000 148250 149250 149500 151500 152250 152750 153000 154250 154500 155250 155750 157250 159250 160500 161500 161750 162250 163250 165750 168500 170750 171750 173000 175500 176250 177750 180500 181000 182750 185750 186000 188000 189750 191250 191500 192000 192750 193750 195000 197250 197500 198250 198750 201250 203500 206500 207250 207500 208000 209250 209500 210000 210750 211000 211500 212500 212750 213500 213750 214250 214500 216000 218000 219000 219250 1500 6000 9000 10500 12500 15000 15500 16500 20000 24000 29500 30000 32000 34500 37500 38000 40500 41000 42000 47000 48500 50500 53000 53500 54500 55000 61000 64000 67500 72000 72500 74000 76000 77000 82000 85500 86000 87000 92500 95000 97000 98500 99500 100000 101500 102000 105000 106000 107500 108000 109500 110500 111000 113000 115500 118500 123000 123500 127000 128000 132000 133500 138000 140000 145000 147500 153000 156000 162000 167500 172500 177000 180500 183500 187500 190000 190500 193000 195000 196500 197500 198000 199000 200500 201000 206000 210000 213500 215000 215500 218000 219500 220000 221000 221500 223000 224000 224500 230500)) :ldur (quote ((125) (250) (375) (500) (750) (625) (875) (1250) (1375) (1500) (1375) (1000) (1125) (1500) (1125) (500) (375) (625) (875) (1250) (1500) (125) (250) (375) (1000) (125) (250) (500) (875) (1250) (1500) (125) (250) (500) (625) (1000) (1125) (1500) (1375) (1250) (1125) (625) (500) (375) (250) (125) (875) (375) (625) (1000) (1250) (1500) (1375) (125) (375) (250) (1000) (1500) (125) (1500) (250) (1375) (375) (1250) (500) (1125) (625) (1000) (750) (875) (250) (1125) (125) (250) (1500) (1250) (125) (250) (500) (1500) (1375) (1250) (625) (750) (875) (1125) (1000) (125) (250) (125) (1375) (375) (1125) (625) (875) (1000) (500) (1250) (250) (1500) (875) (125) (1500) (750) (625) (875) (1000) (1125) (1375) (375) (750) (875) (1250) (1375) (1500) (125) (250) (500) (625) (1000) (875) (1375) (1500) (1000) (750) (1375) (750) (875) (1500) (125) (625) (1000) (1375) (250) (500) (1125) (1250) (375) (1500) (125) (375) (250) (500) (1000) (1125) (1375) (1250) (750) (1375) (1125) (1250) (125) (625) (375) (125) (625) (1375) (625) (375) (125) (250) (500) (1125) (1000) (375) (1500) (1125) (1500) (500) (375) (250) (125) (750) (250) (500) (125) (375) (500) (625) (1500) (1000) (125) (250) (375) (625) (750) (1375) (1500) (500) (1375) (1500) (375) (125) (500) (250) (375) (500) (250) (125) (750) (250) (500) (375) (125) (875) (1000) (125) (1500) (875) (250) (1375) (750) (375) (1250) (625) (500) (1125) (500) (125) (375) (250) (1125) (1250) (750) (875) (1000) (375) (625) (750) (125) (500) (1000) (125) (500) (875) (1250) (250) (625) (1000) (625) (125) (500) (1375) (250) (625) (1000) (1375) (375) (750) (1125) (1500) (1000) (1500) (1250) (1375) (750) (625) (500) (375) (250) (125) (1000) (1125) (125) (250) (375) (500) (625) (750) (875) (1000) (1125) (1250) (1500) (1375) (1500) (125) (1000) (1250) (1500) (1375) (1000) (125) (375) (1125) (250) (500) (750) (1000) (1250) (250) (500) (750) (1500) (1750) (2000) (2250) (250) (2500) (2750) (250) (500) (750) (2500) (3000) (250) (1000) (1250) (250) (1500) (1750) (2000) (2250) (1000) (2000) (3000) (2750) (2250) (1750) (1500) (1250) (1000) (750) (500) (250) (1000) (250) (500) (750) (3000) (2750) (2500) (1250) (1000) (1500) (2250) (2000) (1750) (250) (2750) (750) (2250) (1250) (1750) (2000) (1000) (2500) (500) (3000) (1500) (1000) (250) (500) (750) (250) (1000) (250) (1250) (250) (2250) (250) (500) (750) (1000) (1250) (250) (500) (750) (1500) (1750) (1250) (1500) (1250) (1750) (1000) (2000) (750) (2250) (500) (2500) (250) (2750) (250) (500) (750) (1250) (2000) (1750) (1000) (2250) (2500) (250) (500) (750) (3000) (1000) (500) (250) (1500) (250) (1000) (250) (2000) (750) (500) (250) (1250) (250) (750) (500) (1500) (2000) (1250) (1000) (250) (500) (1000) (2500) (2750) (2250) (1000) (1250) (2500) (750) (1500) (2750) (500) (1750) (3000) (250) (2000) (1750) (1500) (250) (500) (750) (1000) (1250) (2250) (250) (750) (500) (2500) (2250) (3000) (750) (250) (500) (1250) (250) (500) (750) (250) (500) (1000) (250) (750) (250) (500) (250) (1500) (2000) (1000) (250) (1000) (4500) (3000) (1500) (2000) (2500) (500) (1000) (3500) (4000) (5500) (500) (2000) (2500) (3000) (500) (2500) (500) (1000) (5000) (1500) (2000) (2500) (500) (1000) (500) (6000) (3000) (3500) (4500) (500) (1500) (2000) (1000) (5000) (3500) (500) (1000) (5500) (2500) (2000) (1500) (1000) (500) (1500) (500) (3000) (1000) (1500) (500) (1500) (1000) (500) (2000) (2500) (3000) (4500) (500) (3500) (1000) (4000) (1500) (4500) (2000) (5000) (2500) (5500) (3000) (6000) (5500) (5000) (4500) (3500) (3000) (4000) (2500) (500) (2500) (2000) (1500) (1000) (500) (1000) (1500) (500) (5000) (4000) (3500) (1500) (500) (2500) (1500) (500) (1000) (500) (1500) (1000) (500) (6000))) :lvel (quote ((19) (19) (110) (90) (110) (70) (90) (30) (110) (43) (110) (70) (110) (43) (110) (90) (110) (70) (90) (30) (43) (19) (19) (110) (70) (19) (19) (90) (90) (30) (43) (19) (19) (90) (70) (70) (110) (43) (110) (30) (110) (70) (90) (110) (19) (19) (90) (110) (70) (70) (30) (43) (110) (19) (110) (19) (70) (43) (19) (43) (19) (110) (110) (30) (90) (110) (70) (70) (110) (90) (19) (110) (19) (19) (43) (30) (19) (19) (90) (43) (110) (30) (70) (110) (90) (110) (70) (19) (19) (19) (110) (110) (110) (70) (90) (70) (90) (30) (19) (43) (90) (19) (43) (110) (70) (90) (70) (110) (110) (110) (110) (90) (30) (110) (43) (19) (19) (90) (70) (70) (90) (110) (43) (70) (110) (110) (110) (90) (43) (19) (70) (70) (110) (19) (90) (110) (30) (110) (43) (19) (110) (19) (90) (70) (110) (110) (30) (110) (110) (110) (30) (19) (70) (110) (19) (70) (110) (70) (110) (19) (19) (90) (110) (70) (110) (43) (110) (43) (90) (110) (19) (19) (110) (19) (90) (19) (110) (90) (70) (43) (70) (19) (19) (110) (70) (110) (110) (43) (90) (110) (43) (110) (19) (90) (19) (110) (90) (19) (19) (110) (19) (90) (110) (19) (90) (70) (19) (43) (90) (19) (110) (110) (110) (30) (70) (90) (110) (90) (19) (110) (19) (110) (30) (110) (90) (70) (110) (70) (110) (19) (90) (70) (19) (90) (90) (30) (19) (70) (70) (70) (19) (90) (110) (19) (70) (70) (110) (110) (110) (110) (43) (70) (43) (30) (110) (110) (70) (90) (110) (19) (19) (70) (110) (19) (19) (110) (90) (70) (110) (90) (70) (110) (30) (43) (110) (43) (19) (70) (30) (43) (110) (70) (19) (110) (110) (110) (70) (70) (43) (30) (110) (70) (70) (43) (43) (43) (90) (110) (90) (90) (110) (70) (70) (90) (90) (110) (43) (30) (110) (43) (43) (43) (90) (43) (43) (90) (90) (90) (43) (43) (30) (43) (70) (70) (110) (43) (110) (70) (70) (90) (90) (90) (30) (43) (43) (90) (43) (43) (110) (90) (70) (90) (30) (43) (43) (43) (90) (70) (90) (43) (43) (110) (70) (70) (110) (43) (110) (30) (110) (90) (110) (70) (70) (43) (30) (110) (70) (70) (43) (43) (30) (43) (30) (43) (43) (43) (70) (90) (70) (90) (110) (90) (110) (70) (70) (30) (43) (43) (43) (90) (90) (110) (70) (70) (90) (43) (70) (110) (43) (110) (43) (110) (43) (70) (70) (110) (30) (110) (70) (70) (43) (43) (30) (43) (110) (70) (43) (90) (90) (90) (43) (30) (90) (70) (43) (90) (70) (43) (90) (110) (43) (43) (43) (110) (70) (70) (43) (30) (90) (110) (70) (70) (90) (90) (90) (70) (110) (70) (30) (110) (70) (70) (110) (70) (43) (110) (70) (110) (70) (110) (43) (43) (43) (110) (43) (110) (90) (70) (30) (43) (110) (110) (110) (70) (120) (110) (30) (43) (90) (110) (43) (110) (110) (110) (70) (30) (43) (110) (110) (110) (120) (90) (110) (110) (110) (70) (30) (110) (110) (110) (110) (110) (120) (43) (30) (70) (110) (110) (70) (110) (90) (110) (70) (110) (70) (110) (110) (30) (43) (90) (110) (110) (110) (110) (70) (70) (110) (30) (110) (43) (120) (90) (120) (120) (110) (110) (110) (90) (70) (43) (110) (43) (30) (70) (110) (110) (110) (70) (110) (110) (70) (110) (70) (110) (43) (70) (110) (110) (110) (70) (110) (110) (120))) :loffset (quote ((0) (0) (0) (0) (0) (0) (0) (0) (0) (0) (0) (0) (0) (0) (0) (0) (0) (0) (0) (0) (0) (0) (0) (0) (0) (0) (0) (0) (0) (0) (0) (0) (0) (0) (0) (0) (0) (0) (0) (0) (0) (0) (0) (0) (0) (0) (0) (0) (0) (0) (0) (0) (0) (0) (0) (0) (0) (0) (0) (0) (0) (0) (0) (0) (0) (0) (0) (0) (0) (0) (0) (0) (0) (0) (0) (0) (0) (0) (0) (0) (0) (0) (0) (0) (0) (0) (0) (0) (0) (0) (0) (0) (0) (0) (0) (0) (0) (0) (0) (0) (0) (0) (0) (0) (0) (0) (0) (0) (0) (0) (0) (0) (0) (0) (0) (0) (0) (0) (0) (0) (0) (0) (0) (0) (0) (0) (0) (0) (0) (0) (0) (0) (0) (0) (0) (0) (0) (0) (0) (0) (0) (0) (0) (0) (0) (0) (0) (0) (0) (0) (0) (0) (0) (0) (0) (0) (0) (0) (0) (0) (0) (0) (0) (0) (0) (0) (0) (0) (0) (0) (0) (0) (0) (0) (0) (0) (0) (0) (0) (0) (0) (0) (0) (0) (0) (0) (0) (0) (0) (0) (0) (0) (0) (0) (0) (0) (0) (0) (0) (0) (0) (0) (0) (0) (0) (0) (0) (0) (0) (0) (0) (0) (0) (0) (0) (0) (0) (0) (0) (0) (0) (0) (0) (0) (0) (0) (0) (0) (0) (0) (0) (0) (0) (0) (0) (0) (0) (0) (0) (0) (0) (0) (0) (0) (0) (0) (0) (0) (0) (0) (0) (0) (0) (0) (0) (0) (0) (0) (0) (0) (0) (0) (0) (0) (0) (0) (0) (0) (0) (0) (0) (0) (0) (0) (0) (0) (0) (0) (0) (0) (0) (0) (0) (0) (0) (0) (0) (0) (0) (0) (0) (0) (0) (0) (0) (0) (0) (0) (0) (0) (0) (0) (0) (0) (0) (0) (0) (0) (0) (0) (0) (0) (0) (0) (0) (0) (0) (0) (0) (0) (0) (0) (0) (0) (0) (0) (0) (0) (0) (0) (0) (0) (0) (0) (0) (0) (0) (0) (0) (0) (0) (0) (0) (0) (0) (0) (0) (0) (0) (0) (0) (0) (0) (0) (0) (0) (0) (0) (0) (0) (0) (0) (0) (0) (0) (0) (0) (0) (0) (0) (0) (0) (0) (0) (0) (0) (0) (0) (0) (0) (0) (0) (0) (0) (0) (0) (0) (0) (0) (0) (0) (0) (0) (0) (0) (0) (0) (0) (0) (0) (0) (0) (0) (0) (0) (0) (0) (0) (0) (0) (0) (0) (0) (0) (0) (0) (0) (0) (0) (0) (0) (0) (0) (0) (0) (0) (0) (0) (0) (0) (0) (0) (0) (0) (0) (0) (0) (0) (0) (0) (0) (0) (0) (0) (0) (0) (0) (0) (0) (0) (0) (0) (0) (0) (0) (0) (0) (0) (0) (0) (0) (0) (0) (0) (0) (0) (0) (0) (0) (0) (0) (0) (0) (0) (0) (0) (0) (0) (0) (0) (0) (0) (0) (0) (0) (0) (0) (0) (0) (0) (0) (0) (0) (0) (0) (0) (0) (0) (0) (0) (0) (0) (0) (0) (0) (0) (0) (0) (0) (0) (0) (0) (0) (0) (0) (0) (0) (0) (0) (0) (0) (0) (0) (0) (0) (0) (0) (0) (0) (0) (0) (0) (0) (0) (0) (0) (0) (0) (0) (0) (0) (0) (0) (0) (0) (0) (0) (0) (0) (0) (0) (0) (0) (0) (0) (0) (0) (0) (0) (0) (0) (0) (0))) :lchan (quote ((1) (1) (1) (1) (1) (1) (1) (1) (1) (1) (1) (1) (1) (1) (1) (1) (1) (1) (1) (1) (1) (1) (1) (1) (1) (1) (1) (1) (1) (1) (1) (1) (1) (1) (1) (1) (1) (1) (1) (1) (1) (1) (1) (1) (1) (1) (1) (1) (1) (1) (1) (1) (1) (1) (1) (1) (1) (1) (1) (1) (1) (1) (1) (1) (1) (1) (1) (1) (1) (1) (1) (1) (1) (1) (1) (1) (1) (1) (1) (1) (1) (1) (1) (1) (1) (1) (1) (1) (1) (1) (1) (1) (1) (1) (1) (1) (1) (1) (1) (1) (1) (1) (1) (1) (1) (1) (1) (1) (1) (1) (1) (1) (1) (1) (1) (1) (1) (1) (1) (1) (1) (1) (1) (1) (1) (1) (1) (1) (1) (1) (1) (1) (1) (1) (1) (1) (1) (1) (1) (1) (1) (1) (1) (1) (1) (1) (1) (1) (1) (1) (1) (1) (1) (1) (1) (1) (1) (1) (1) (1) (1) (1) (1) (1) (1) (1) (1) (1) (1) (1) (1) (1) (1) (1) (1) (1) (1) (1) (1) (1) (1) (1) (1) (1) (1) (1) (1) (1) (1) (1) (1) (1) (1) (1) (1) (1) (1) (1) (1) (1) (1) (1) (1) (1) (1) (1) (1) (1) (1) (1) (1) (1) (1) (1) (1) (1) (1) (1) (1) (1) (1) (1) (1) (1) (1) (1) (1) (1) (1) (1) (1) (1) (1) (1) (1) (1) (1) (1) (1) (1) (1) (1) (1) (1) (1) (1) (1) (1) (1) (1) (1) (1) (1) (1) (1) (1) (1) (1) (1) (1) (1) (1) (1) (1) (1) (1) (1) (1) (1) (1) (1) (1) (1) (1) (1) (1) (1) (1) (1) (1) (1) (1) (1) (1) (1) (2) (2) (2) (2) (2) (2) (2) (2) (2) (2) (2) (2) (2) (2) (2) (2) (2) (2) (2) (2) (2) (2) (2) (2) (2) (2) (2) (2) (2) (2) (2) (2) (2) (2) (2) (2) (2) (2) (2) (2) (2) (2) (2) (2) (2) (2) (2) (2) (2) (2) (2) (2) (2) (2) (2) (2) (2) (2) (2) (2) (2) (2) (2) (2) (2) (2) (2) (2) (2) (2) (2) (2) (2) (2) (2) (2) (2) (2) (2) (2) (2) (2) (2) (2) (2) (2) (2) (2) (2) (2) (2) (2) (2) (2) (2) (2) (2) (2) (2) (2) (2) (2) (2) (2) (2) (2) (2) (2) (2) (2) (2) (2) (2) (2) (2) (2) (2) (2) (2) (2) (2) (2) (2) (2) (2) (2) (2) (2) (2) (2) (2) (2) (2) (2) (2) (2) (2) (2) (2) (2) (2) (2) (2) (2) (2) (2) (2) (2) (2) (2) (2) (2) (2) (2) (2) (2) (2) (2) (2) (2) (2) (2) (2) (2) (2) (2) (2) (2) (2) (2) (2) (2) (2) (2) (2) (2) (2) (2) (2) (2) (3) (3) (3) (3) (3) (3) (3) (3) (3) (3) (3) (3) (3) (3) (3) (3) (3) (3) (3) (3) (3) (3) (3) (3) (3) (3) (3) (3) (3) (3) (3) (3) (3) (3) (3) (3) (3) (3) (3) (3) (3) (3) (3) (3) (3) (3) (3) (3) (3) (3) (3) (3) (3) (3) (3) (3) (3) (3) (3) (3) (3) (3) (3) (3) (3) (3) (3) (3) (3) (3) (3) (3) (3) (3) (3) (3) (3) (3) (3) (3) (3) (3) (3) (3) (3) (3) (3) (3) (3) (3) (3) (3) (3) (3) (3) (3) (3) (3))) :legato 0)))) (load-port-info newobj (quote ((0) (0) (0) (0) (0) (0) (0) (0) (0) (0) (0) (0) (0) (0) (0) (0) (0) (0) (0) (0) (0) (0) (0) (0) (0) (0) (0) (0) (0) (0) (0) (0) (0) (0) (0) (0) (0) (0) (0) (0) (0) (0) (0) (0) (0) (0) (0) (0) (0) (0) (0) (0) (0) (0) (0) (0) (0) (0) (0) (0) (0) (0) (0) (0) (0) (0) (0) (0) (0) (0) (0) (0) (0) (0) (0) (0) (0) (0) (0) (0) (0) (0) (0) (0) (0) (0) (0) (0) (0) (0) (0) (0) (0) (0) (0) (0) (0) (0) (0) (0) (0) (0) (0) (0) (0) (0) (0) (0) (0) (0) (0) (0) (0) (0) (0) (0) (0) (0) (0) (0) (0) (0) (0) (0) (0) (0) (0) (0) (0) (0) (0) (0) (0) (0) (0) (0) (0) (0) (0) (0) (0) (0) (0) (0) (0) (0) (0) (0) (0) (0) (0) (0) (0) (0) (0) (0) (0) (0) (0) (0) (0) (0) (0) (0) (0) (0) (0) (0) (0) (0) (0) (0) (0) (0) (0) (0) (0) (0) (0) (0) (0) (0) (0) (0) (0) (0) (0) (0) (0) (0) (0) (0) (0) (0) (0) (0) (0) (0) (0) (0) (0) (0) (0) (0) (0) (0) (0) (0) (0) (0) (0) (0) (0) (0) (0) (0) (0) (0) (0) (0) (0) (0) (0) (0) (0) (0) (0) (0) (0) (0) (0) (0) (0) (0) (0) (0) (0) (0) (0) (0) (0) (0) (0) (0) (0) (0) (0) (0) (0) (0) (0) (0) (0) (0) (0) (0) (0) (0) (0) (0) (0) (0) (0) (0) (0) (0) (0) (0) (0) (0) (0) (0) (0) (0) (0) (0) (0) (0) (0) (0) (0) (0) (0) (0) (0) (0) (0) (0) (0) (0) (0) (0) (0) (0) (0) (0) (0) (0) (0) (0) (0) (0) (0) (0) (0) (0) (0) (0) (0) (0) (0) (0) (0) (0) (0) (0) (0) (0) (0) (0) (0) (0) (0) (0) (0) (0) (0) (0) (0) (0) (0) (0) (0) (0) (0) (0) (0) (0) (0) (0) (0) (0) (0) (0) (0) (0) (0) (0) (0) (0) (0) (0) (0) (0) (0) (0) (0) (0) (0) (0) (0) (0) (0) (0) (0) (0) (0) (0) (0) (0) (0) (0) (0) (0) (0) (0) (0) (0) (0) (0) (0) (0) (0) (0) (0) (0) (0) (0) (0) (0) (0) (0) (0) (0) (0) (0) (0) (0) (0) (0) (0) (0) (0) (0) (0) (0) (0) (0) (0) (0) (0) (0) (0) (0) (0) (0) (0) (0) (0) (0) (0) (0) (0) (0) (0) (0) (0) (0) (0) (0) (0) (0) (0) (0) (0) (0) (0) (0) (0) (0) (0) (0) (0) (0) (0) (0) (0) (0) (0) (0) (0) (0) (0) (0) (0) (0) (0) (0) (0) (0) (0) (0) (0) (0) (0) (0) (0) (0) (0) (0) (0) (0) (0) (0) (0) (0) (0) (0) (0) (0) (0) (0) (0) (0) (0) (0) (0) (0) (0) (0) (0) (0) (0) (0) (0) (0) (0) (0) (0) (0) (0) (0) (0) (0) (0) (0) (0) (0) (0) (0) (0) (0) (0) (0) (0) (0) (0) (0) (0) (0) (0) (0) (0) (0) (0) (0) (0) (0) (0) (0) (0) (0) (0) (0) (0) (0) (0) (0) (0) (0) (0) (0) (0) (0) (0) (0) (0) (0) (0) (0) (0) (0) (0) (0) (0) (0) (0) (0) (0) (0) (0) (0) (0)))) (init-mus-color newobj (quote nil)) (set-extra-pairs newobj (quote nil)) (set-patch-pairs newobj (quote nil)) (set-name newobj nil) (set-tonalite newobj nil) newobj) nil nil (pairlis (quote (score-mode cursor-mode show-stems winpos winsize mode grillestep notechancolor? obj-mode palette-mode zoom inport outport deltapict cmnpref staff fontsize approx player scale)) (list 0 (quote :normal) (quote t) (om-make-point 10 40) (om-make-point 1256 392) 0 1000 nil 0 0 1 0 0 (om-make-point 0 0) (let ((newobj (make-instance (quote edition-values)))) (setf (paper-size newobj) (om-make-point 600 800)) (setf (top-margin newobj) 2) (setf (left-margin newobj) 1) (setf (right-margin newobj) 1) (setf (bottom-margin newobj) 1) (setf (orientation newobj) nil) (setf (scale newobj) nil) (setf (system-space newobj) (quote (1))) (setf (system-color newobj) (quote nil)) (setf (line-space newobj) 1) (setf (title newobj) nil) (setf (show-title? newobj) nil) (setf (show-page? newobj) nil) (setf (sheet-id newobj) nil) (setf (page-mode newobj) nil) newobj) (quote ggff) 24 4 (quote :midi-player) nil)) t nil nil nil))) (when (fboundp (quote set-active)) (set-active box nil)) box) (let ((box (om-load-boxcall (quote patch-box) "modes" (quote ("elements" "authors" "messiaen" "messiaen_1949_mode_de_valeurs_et_d_intensites" "modes")) (quote ((om-load-inputfun (quote input-funbox) "modes base time - 125ms" "base_ms" nil))) (om-make-point 78 77) (om-make-point 795 67) nil nil nil 4))) (when (fboundp (quote set-active)) (set-active box nil)) box))) (quote ((15 0 1 0 nil 0) (8 0 3 0 nil 0) (2 0 3 1 nil 0) (7 0 4 0 nil 0) (2 0 4 1 nil 0) (6 0 5 0 nil 0) (2 0 5 1 nil 0) (16 0 13 0 nil 0) (5 0 13 1 nil 0) (14 0 13 2 nil 0) (16 1 13 3 nil 0) (4 0 13 4 nil 0) (12 0 13 5 nil 0) (16 2 13 6 nil 0) (3 0 13 7 nil 0) (11 0 13 8 nil 0) (16 3 13 9 nil 3) (13 0 15 1 nil 0) (13 1 15 2 nil 0) (13 2 15 3 nil 0) (13 3 15 4 nil 0) (13 4 15 6 nil 0) (10 0 16 0 nil 0))) nil 6.16))
